<svg width="24" height="16" fill="none" xmlns="http://www.w3.org/2000/svg"><path d="M12.278 15.929c-2.547-.08-4.97-.143-7.392-.236a8.392 8.392 0 01-1.56-.223c-.955-.223-1.616-.799-1.955-1.74-.272-.758-.37-1.539-.441-2.333C.774 9.533.774 7.668.85 5.803c.044-1.052.07-2.114.352-3.135.17-.611.375-1.21.87-1.65C2.594.547 3.205.267 3.9.236 5.81.143 7.714.027 9.624.009c2.569-.027 5.143.01 7.712.058 1.11.022 2.23.08 3.332.223 1.008.134 1.762.696 2.163 1.677.308.754.424 1.544.491 2.347.174 2.011.178 4.023.08 6.035-.049 1.021-.098 2.047-.388 3.042-.33 1.142-1.03 1.896-2.199 2.154a8.111 8.111 0 01-1.392.152c-2.426.085-4.848.16-7.145.232zM9.81 10.857a4283.03 4283.03 0 006.098-3.162c-2.048-1.07-4.06-2.119-6.098-3.185v6.347z" fill="#B8926B"/></svg>